# xmcd
#
# Track frame offsets:
#	150
#	12467
#	24941
#	40398
#	51016
#	63733
#	75640
#	87626
#	102120
#	111799
#	123479
#	132540
#	142124
#
# Disc length: 2074 seconds
#
# Revision: 1
# Processed by: cddbd v1.4PL0 Copyright (c) Steve Scherf et al.
# Submitted via: audiograbber 1.81.00
#
DISCID=b808180d
DTITLE=Various Artist - The Best of Country - CD 1
DYEAR=1900
DGENRE=Country
TTITLE0=Johnny Cash - Walk the Line
TTITLE1=Bobby Bare - Four strong Winds
TTITLE2=Linda Davis - What do I know
TTITLE3=Ray Griff - Your Lily whide hands
TTITLE4=Lynn Anderson - Top of the World
TTITLE5=Rick Nelson - Fools Rush in
TTITLE6=Don Gibson - I can't stop loving you
TTITLE7=Shania Twain - Half-Breed
TTITLE8=Ned Miller - From a Jack to a King
TTITLE9=BR5-49 - Wild One
TTITLE10=Frankie Lane - Rawhide
TTITLE11=Dave Dudley - Six Days on the Road
TTITLE12=Blackhawk - Goin' down fightin'
EXTD=
EXTT0=
EXTT1=
EXTT2=
EXTT3=
EXTT4=
EXTT5=
EXTT6=
EXTT7=
EXTT8=
EXTT9=
EXTT10=
EXTT11=
EXTT12=
PLAYORDER=
